<svg id="Laag_1" data-name="Laag 1" xmlns="http://www.w3.org/2000/svg" viewBox="0 0 218.18 267.37"><defs><style>.cls-1{fill:#ceb034;}.cls-2{fill:#bdc2c7;}.cls-3{fill:#ebeff0;}.cls-4{fill:#e9eeef;}.cls-5{fill:#ddc457;}</style></defs><title>book</title><path class="cls-1" d="M507.46,414c-5.57,7.81-13.14,10.57-22.55,10.54q-76.53-.23-153.07,0c-8.07,0-14.83-2-19.83-8.63-3.08-5.67-2.27-11,1.46-16,5.87-6.19,13.62-6.59,21.41-7.09,7.08-.45,14.35,1.44,21.22-1.65a1.8,1.8,0,0,0,.43-2.51l-.08-216.27c-11-.07-22.09-.44-33.12-.14-17.37.46-27.72,9.92-27.76,25.8q-.29,107.7-.14,215.39c0,13.68,6,21.17,19.28,25.42,59.29,1,118.59.62,177.88.18,15.38-3.81,20.89-11.47,20.93-29.13C510.24,409.38,508.89,412,507.46,414Z" transform="translate(-295.4 -172.13)"/><path class="cls-2" d="M309.2,415c-3.1-5.68-1.24-10.75,1.94-15.65,57.86,1.43,115.73.23,173.58.69,9.43.08,17-3,22.72-10.57,1.5-2,2.92-4.52,6.14-4.14l-.06,12c-4.32,14.1-11.72,20.15-26.45,20.21q-83.05.34-166.11.06A25.59,25.59,0,0,1,309.2,415Z" transform="translate(-295.4 -172.13)"/><path class="cls-3" d="M309.2,415c4.69-2.5,9.41.12,14.11.09,52.56-.28,105.13-.64,157.69.11,15.18.22,25.76-4.5,32.52-17.9v12.64C506.75,423.32,496,427.64,481,427.42c-51-.74-102-.36-153.07-.28C318.86,427.15,312.29,423.89,309.2,415Z" transform="translate(-295.4 -172.13)"/><path class="cls-4" d="M513.58,385.3c-7.17,13.62-18.33,17.87-33.64,17.65-52.62-.75-105.26-.27-157.89-.34-3.87,0-8.37,1.42-10.91-3.29,4.12-6.72,10.76-8.08,17.86-8.27,9.19-.23,18.38-.3,27.57-.45,1.44-1.34,3.24-1,4.95-1q65.53,0,131.08,0A11.57,11.57,0,0,1,496,390c9.46-2.16,13.83-9.41,17.46-17.42Q513.53,379,513.58,385.3Z" transform="translate(-295.4 -172.13)"/><path class="cls-5" d="M513.31,369.38q0-87.19,0-174.41c-1.68-13.85-10.2-22.68-23.74-22.75-44.39-.21-88.77.08-133.16.17-2.92,3-2.75,6.91-2.76,10.66q-.12,97.95,0,195.91c0,3.48.06,7,2.27,10,.19.15.38.28.58.41,0,.4,0,.81,0,1.21h2.56c3,.93,6.27.49,9.4.5,41.69.18,83.38-.19,125.08.2,12-.65,17-5.39,19.88-18.69Z" transform="translate(-295.4 -172.13)"/></svg>