<svg id="Laag_1" data-name="Laag 1" xmlns="http://www.w3.org/2000/svg" viewBox="0 0 316.71 487.86"><defs><style>.cls-1{fill:#fee560;}.cls-2{fill:#d8ba19;}.cls-3{fill:#3d3d3d;}.cls-4{fill:#4d4d4d;}.cls-5{fill:#333;}.cls-6{fill:#4c4c4c;}.cls-7{fill:#fedb1d;}.cls-8{fill:#010a10;}.cls-9{fill:#5d5715;}.cls-10{fill:#af9919;}</style></defs><title>lightbulb</title><path class="cls-1" d="M96.9,391.77c0-27.65-.1-55.31,0-83,0-3.31-1-4.88-4-6.31C33.24,274.85-2.54,216.23.14,150.8,3.23,75.39,61.39,11.72,136.42,1.64c10.24-1.38,20.51-2.3,30.84-1-.71,1.74-2.54,2-3.87,2.87C150.5,6,137.64,8.69,125.46,13.85,92.34,27.91,66.57,50.29,48.65,81.61a151.33,151.33,0,0,0-20.26,83.24A153.36,153.36,0,0,0,61.94,255a156.28,156.28,0,0,0,57.92,45.48c3.62,1.67,5.32,4.24,5.33,8.18q.11,39,0,78c0,2.56-.31,5-2.79,6.57-7.22,1.49-14.49.67-21.74.57A4.23,4.23,0,0,1,96.9,391.77Z"/><path class="cls-2" d="M162.91,1.7,167.26.6a145.09,145.09,0,0,1,83.11,29c49,36.43,72,85.76,65.18,146.4-6.73,60.21-39.93,102.76-95.07,127.92-3.48,1.59-4.45,3.35-4.42,7,.17,26,.1,52,.07,78,0,3.48.25,7-1.06,10.37-2.22-.77-1.83-4.06-4.39-4.5-4.89-2.34-10.26-.84-15.29-1.94-2.29-1.49-2.4-3.85-2.41-6.2q-.1-38,0-75.94c0-4.6,2.16-7.32,6.29-9.16,18.43-8.21,35.07-19.2,49.08-33.72,25.06-26,40-56.86,43.79-93,4-37.95-4.8-72.83-26.09-104.22-23.24-34.27-55.71-55.53-96-64.86C167.4,5.14,163.66,5.82,162.91,1.7Z"/><path class="cls-3" d="M213,392c3.35,1.67,1.1,4.91,2,7.26-.22,12.61.22,25.27-.82,37.81-1.53,18.41-14.12,32.11-32.13,35.85-4.38.91-7.26,2.08-6.93,7-2.55-2.92-5.61-4.58-9.64-4.19a4.16,4.16,0,0,1-3.81-1.75c-1.08-4.58,3.3-4.6,5.9-7-4.94-.12-9.44,0-13.94-.06-9.27,0-18.55,0-27.82,0-4.64,0-9.26,0-13.77-1.23a16.68,16.68,0,0,1-5.39-4.91c1.87-3,5-2.23,7.67-2.25q29.42-.19,58.84,0c5.32,0,8.38-2.43,10.49-6.8,1.36-2.81.59-4.49-2.67-4.72-1.66-.11-3.32-.08-5-.08q-34.9,0-69.81,0c-3.16,0-6.37.19-8.92-2.25l-.39-1.8c-.85-3.05,1.18-3.8,3.47-4.16a43.79,43.79,0,0,1,7-.25c25,0,49.89,0,74.84,0,5.65,0,7.81-2.33,7.53-7.42-.13-2.37-1.15-3.73-3.57-3.93-1.16-.1-2.32-.13-3.49-.13q-37.66,0-75.33,0c-7,0-7,.08-8.22,6.92-.34,1.79-.51,3.75-3.05,3.78,0-.55-.07-1.09-.11-1.64-.64-14.46-.72-28.93,0-43.39l0-.1a2.65,2.65,0,0,1,2.87,2.27c.91,4.33,4,4.67,7.6,4.67q38.72,0,77.44,0c3.64,0,6.56-.54,7.46-4.83.42-2,2-2.6,4.23-2.55A143.11,143.11,0,0,0,213,392Z"/><path class="cls-4" d="M96.1,437.72c1.79-2.76.86-5.85.91-8.77s1.1-4.2,4.13-4.19q44,.08,87.92,0c3,0,4.08.88,3.55,4.2-1.87,11.77-1.75,11.79-13.75,11.79q-38,0-75.93,0c-2.16,0-4.86-1-6,2.14C95.91,441.32,96.05,439.52,96.1,437.72Z"/><path class="cls-4" d="M97.34,444.74l85.81,0c6.1,0,6.1,0,3.89,5.63-3.5,8.9-5.58,10.34-15,10.35l-65.35.08A34.75,34.75,0,0,1,97.34,444.74Z"/><path class="cls-4" d="M213,392c-4.88,1.64-9.9.61-14.84.7-3.41.06-5.56.74-5.11,4.69.42,3.69-1.64,4.42-4.84,4.42q-43.2-.1-86.38,0c-3.75,0-5.18-1.36-4.82-5A5.4,5.4,0,0,0,96,392.59l.91-.82,26.17-.11c1.55-1.84,3.68-2.09,5.88-2.08,15.93.12,31.87-.5,47.8.33,4.1.21,8.26-.54,12.41-.35,2.19.11,4.34.22,5.88,2.1Z"/><path class="cls-5" d="M162.07,473.75a48.3,48.3,0,0,0,6.48,0c4.91-.66,7.28,1.12,6.64,6.23-1,5.21-4.51,7.57-9.47,7.73-6.44.21-12.91.23-19.36,0-5-.19-8.42-2.64-9.4-7.84-.91-7.41-.35-8.11,6.92-8.29,4.12-.1,8.25-.08,12.38,0C158.46,471.63,160.57,471.86,162.07,473.75Z"/><path class="cls-6" d="M162.07,473.75c-6.31,0-12.64.34-18.92-.08-4.91-.32-6.66,1.58-6.19,6.19-.11-4.44-2-6.14-6.8-6.49a31.49,31.49,0,0,1-18-7.62,10,10,0,0,1,4.83-1l54.93,0a19.73,19.73,0,0,1,2.36.31c-.9,2.79-3.51,3-5.24,4.27C166.78,471,163.38,470.73,162.07,473.75Z"/><path class="cls-4" d="M96,392.69l0,43.39A322.19,322.19,0,0,1,96,392.69Z"/><path class="cls-7" d="M195,391.66h-72c0-27.15-.08-54.3.09-81.45,0-4.19-1.12-6.28-5.15-8.23C68.7,278,38,239.05,28.5,185.12c-8.56-48.43,3.9-92.31,35.84-129.76C88.67,26.83,119.69,8.9,157,2.67l5.89-1c4.16,1,8.33,2.06,12.49,3.12a157.14,157.14,0,0,1,66.42,35c29.13,25.8,46.4,58.05,51.91,96.26a153.61,153.61,0,0,1-12.36,87.2,157.19,157.19,0,0,1-35.23,49.76,153.14,153.14,0,0,1-46.45,30.55c-3.54,1.47-4.72,3.39-4.7,7.08C195.1,337.69,195,364.68,195,391.66Z"/><path class="cls-4" d="M144.55,421.75c-13.82,0-27.64-.2-41.45.1-4.93.11-6.28-1.6-6.12-6.31.37-11.13-1-9.73,10-9.75,26.47-.06,52.94,0,79.4,0,6.66,0,6.66,0,6.68,6.56,0,9.42,0,9.42-9.6,9.42Z"/><path class="cls-8" d="M140.29,364.63c-2.46-39.21-5-78.41-7.27-117.63-.24-4.19-1.58-5.25-5.59-5.14-9.82.27-19.66-.16-29.48.09-33.48.83-44.27-28.74-36.59-51.87,5.71-17.18,19.75-26,39.22-24.71,17.83,1.17,30.31,11.87,33.45,29.4,2.06,11.49,2,23.21,2,34.85,0,4.54,1.46,5.44,5.71,5.33,11.65-.31,23.32-.23,35,0,3.36.07,4.24-1,4.2-4.19-.14-9,.35-18,0-27-1.07-32.42,30.05-43.14,50.21-36.6,18.51,6,28.14,21.46,25.75,42-2.14,18.35-16.31,31.69-35.25,32.57-10.8.49-21.65.35-32.47.16-3.52-.06-4.4,1-4.53,4.42-1.09,26.79-2.37,53.57-3.6,80.35q-1.07,23.44-2.17,46.9c-1.68.1-1.49-.74-.89-1.78q1.18-62.67,2.44-125.33c.07-3.38-.63-4.6-4.27-4.53-11.82.24-23.64.21-35.46,0-3.15-.06-3.91.89-3.78,3.93q1.92,46.91,3.62,93.81c.28,7.31.45,14.64.67,22C141.3,362.73,142.6,364.26,140.29,364.63Z"/><path class="cls-9" d="M140.29,364.63l1-3c1.56,6.83.7,13.72.13,20.62Q140.84,373.44,140.29,364.63Z"/><path class="cls-10" d="M178,371.75l.89,1.78a30.37,30.37,0,0,1-1.4,13.53C177.4,381.94,176.35,376.81,178,371.75Z"/><path class="cls-7" d="M110.41,234.59c-6.66,0-13.41.72-20-.13C72.49,232.12,62,214.94,66.52,196c4-17.12,16-26,33.34-24.88s28.75,12.33,30.16,30c.79,9.95,1.18,19.93,2,29.88.24,3-.34,4.12-3.61,4-6-.28-12-.08-18-.08Z"/><path class="cls-7" d="M204.42,234.86c-5.49,0-11,0-16.46,0-1.58,0-3,.09-2.86-2.23.56-12.12.35-24.31,1.69-36.33,2.27-20.39,26.44-30.16,45.35-22.27,14.21,5.93,20.84,19.55,17.8,36.63-2.42,13.61-14.08,23.37-29.06,24.09-5.48.26-11,0-16.46,0Z"/></svg>