<svg xmlns="http://www.w3.org/2000/svg" viewBox="0 0 232.18 370.76">
  <defs>
    <style>
      .cls-2{fill:#bcc2c6}.cls-3{fill:#ebeff0}.cls-4{fill:#e9eeef}
    </style>
  </defs>
  <g id="boek1">
    <path d="M507.46 414c-5.57 7.81-13.14 10.57-22.55 10.54q-76.53-.23-153.07 0c-8.07 0-14.83-2-19.83-8.63-3.08-5.67-2.27-11 1.46-16 5.87-6.19 13.62-6.59 21.41-7.09 7.08-.45 14.35 1.44 21.22-1.65a1.8 1.8 0 0 0 .43-2.51l-.08-216.27c-11-.07-22.09-.44-33.12-.14-17.37.46-27.72 9.92-27.76 25.8q-.29 107.7-.14 215.39c0 13.68 6 21.17 19.28 25.42 59.29 1 118.59.62 177.88.18 15.38-3.81 20.89-11.47 20.93-29.13-3.28-.53-4.63 2.09-6.06 4.09z" transform="translate(-290.37 -68.75)" fill="#ceb032"/>
    <path class="cls-2" d="M309.2 415c-3.1-5.68-1.24-10.75 1.94-15.65 57.86 1.43 115.73.23 173.58.69 9.43.08 17-3 22.72-10.57 1.5-2 2.92-4.52 6.14-4.14l-.06 12c-4.32 14.1-11.72 20.15-26.45 20.21q-83.05.34-166.11.06a25.59 25.59 0 0 1-11.76-2.6z" transform="translate(-290.37 -68.75)"/>
    <path class="cls-3" d="M309.2 415c4.69-2.5 9.41.12 14.11.09 52.56-.28 105.13-.64 157.69.11 15.18.22 25.76-4.5 32.52-17.9v12.64c-6.77 13.38-17.52 17.7-32.52 17.48-51-.74-102-.36-153.07-.28-9.07.01-15.64-3.25-18.73-12.14z" transform="translate(-290.37 -68.75)"/>
    <path class="cls-4" d="M513.58 385.3c-7.17 13.62-18.33 17.87-33.64 17.65-52.62-.75-105.26-.27-157.89-.34-3.87 0-8.37 1.42-10.91-3.29 4.12-6.72 10.76-8.08 17.86-8.27 9.19-.23 18.38-.3 27.57-.45 1.44-1.34 3.24-1 4.95-1H492.6a11.57 11.57 0 0 1 3.4.4c9.46-2.16 13.83-9.41 17.46-17.42q.07 6.42.12 12.72z" transform="translate(-290.37 -68.75)"/>
    <path d="M513.31 369.38V194.97c-1.68-13.85-10.2-22.68-23.74-22.75-44.39-.21-88.77.08-133.16.17-2.92 3-2.75 6.91-2.76 10.66q-.12 97.95 0 195.91c0 3.48.06 7 2.27 10 .19.15.38.28.58.41v1.21h2.56c3 .93 6.27.49 9.4.5 41.69.18 83.38-.19 125.08.2 12-.65 17-5.39 19.88-18.69z" transform="translate(-290.37 -68.75)" fill="#ddc357"/>
  </g>
  <g id="boek2">
    <path d="M516.43 362.8c-5.57 7.81-13.14 10.57-22.54 10.55q-76.54-.23-153.07 0c-8.08 0-14.84-2-19.84-8.63-3.08-5.67-2.26-11 1.47-16 5.86-6.19 13.61-6.6 21.41-7.09 7.08-.45 14.35 1.43 21.21-1.65a1.81 1.81 0 0 0 .43-2.52l-.07-216.26c-11.05-.07-22.1-.44-33.13-.15-17.37.47-27.72 9.93-27.76 25.81q-.29 107.7-.13 215.39c0 13.68 6 21.16 19.27 25.42 59.3 1 118.59.61 177.88.17 15.39-3.8 20.89-11.46 20.94-29.12-3.28-.53-4.64 2.08-6.07 4.08z" transform="translate(-290.37 -68.75)" fill="#a0301d"/>
    <path class="cls-2" d="M318.17 363.77c-3.09-5.68-1.24-10.74 1.95-15.64 57.85 1.43 115.72.22 173.58.69 9.42.07 17-3 22.71-10.57 1.51-2 2.92-4.52 6.14-4.14l-.06 12c-4.31 14.09-11.72 20.15-26.44 20.21q-83.05.34-166.11 0a25.35 25.35 0 0 1-11.77-2.55z" transform="translate(-290.37 -68.75)"/>
    <path class="cls-3" d="M318.17 363.77c4.69-2.49 9.41.13 14.11.1 52.57-.29 105.14-.64 157.69.11 15.19.22 25.76-4.51 32.53-17.9v12.64c-6.78 13.4-17.53 17.72-32.51 17.51-51-.75-102.05-.36-153.08-.28-9.08.05-15.65-3.25-18.74-12.18z" transform="translate(-290.37 -68.75)"/>
    <path class="cls-4" d="M522.55 334.11c-7.17 13.61-18.33 17.86-33.63 17.65-52.62-.75-105.26-.27-157.89-.34-3.87 0-8.37 1.41-10.91-3.29 4.11-6.72 10.76-8.08 17.86-8.27 9.18-.24 18.37-.31 27.56-.45 1.44-1.34 3.25-1 4.95-1h131.08a11.36 11.36 0 0 1 3.43.46c9.45-2.17 13.83-9.42 17.45-17.42l.1 12.66z" transform="translate(-290.37 -68.75)"/>
    <path d="M522.28 318.19V143.78c-1.68-13.85-10.2-22.69-23.74-22.75-44.38-.21-88.77.07-133.15.17-2.92 3-2.76 6.91-2.76 10.66q-.14 97.95 0 195.91c0 3.47.05 7 2.26 10 .19.15.39.29.58.42v1.21h2.56c3 .93 6.27.48 9.4.5 41.68.18 83.37-.19 125.07.2 12-.65 17-5.39 19.88-18.69z" transform="translate(-290.37 -68.75)" fill="#b73920"/>
  </g>
  <g id="boek3">
    <path d="M502.43 310.61c-5.57 7.81-13.14 10.57-22.54 10.54q-76.54-.21-153.07 0c-8.08 0-14.84-2-19.84-8.63-3.08-5.67-2.26-11 1.47-16 5.86-6.18 13.61-6.59 21.41-7.09 7.08-.45 14.35 1.44 21.21-1.65a1.8 1.8 0 0 0 .43-2.51L351.43 69c-11.05-.07-22.1-.44-33.13-.14-17.37.46-27.72 9.93-27.76 25.81q-.29 107.69-.13 215.38c0 13.68 6 21.17 19.27 25.43 59.3 1 118.59.61 177.88.17 15.39-3.8 20.89-11.46 20.94-29.12-3.28-.53-4.64 2.08-6.07 4.08z" transform="translate(-290.37 -68.75)" fill="#63b3c1"/>
    <path class="cls-2" d="M304.17 311.58c-3.09-5.68-1.24-10.74 1.95-15.64 57.85 1.43 115.72.22 173.58.68 9.42.08 17-3 22.71-10.57 1.51-2 2.92-4.51 6.14-4.13l-.06 12c-4.31 14.09-11.72 20.14-26.44 20.2q-83.05.35-166.11.06a25.48 25.48 0 0 1-11.77-2.6z" transform="translate(-290.37 -68.75)"/>
    <path class="cls-3" d="M304.17 311.58c4.69-2.5 9.41.12 14.11.1 52.57-.29 105.14-.65 157.69.11 15.19.21 25.76-4.51 32.53-17.9v12.64c-6.78 13.4-17.5 17.72-32.5 17.47-51-.74-102.05-.36-153.08-.28-9.09.05-15.66-3.22-18.75-12.14z" transform="translate(-290.37 -68.75)"/>
    <path class="cls-4" d="M508.55 281.92c-7.17 13.61-18.33 17.86-33.63 17.64-52.62-.75-105.26-.26-157.89-.33-3.87 0-8.37 1.41-10.91-3.29 4.11-6.72 10.76-8.09 17.86-8.27 9.18-.24 18.37-.31 27.56-.45 1.44-1.34 3.25-1 4.95-1h131.08a11.67 11.67 0 0 1 3.43.45c9.45-2.16 13.83-9.41 17.45-17.41q.05 6.31.1 12.66z" transform="translate(-290.37 -68.75)"/>
    <path d="M508.28 266V91.59c-1.68-13.86-10.2-22.69-23.74-22.75-44.38-.22-88.77.07-133.15.16-2.92 3-2.76 6.92-2.76 10.66q-.14 98 0 195.92c0 3.47.05 7 2.26 10 .19.15.39.28.58.41v1.22h2.56c3 .93 6.27.49 9.4.5 41.68.18 83.37-.19 125.07.21 12-.65 17-5.39 19.88-18.69z" transform="translate(-290.37 -68.75)" fill="#6cc8dd"/>
  </g>
</svg>
