<svg xmlns="http://www.w3.org/2000/svg" viewBox="0 0 344.84 328.7"><defs><style>.cls-1{fill:#fd0000;}.cls-2{fill:#c7ebf9;opacity:0.42;}.cls-3{fill:#eabc96;}</style></defs><title>logo</title><g id="Laag_1" data-name="Laag 1"><path class="cls-1" d="M473.22,318.48A56.53,56.53,0,0,0,466,294.89c-5.46-9.44-13.11-16.32-23.62-19.69-7.72-2.48-15.56-2.39-23.43-.86-6.87,1.33-13,4.14-17.74,9.44-.62.69-1.2,1.4-1.87,2.18a3.68,3.68,0,0,1-.17-1.69q0-30.16,0-60.34a3.06,3.06,0,0,0-.11-1.41H369.48q0,73.77,0,147.53c0,1.05.24,1.34,1.3,1.34q12.36-.08,24.71,0c1.12,0,1.3-.35,1.28-1.35-.06-3.36,0-6.72,0-10.08,0-.37-.16-.79.15-1.12.27,0,.35.17.46.31,5.66,7.52,13.26,11.9,22.35,13.9a10.11,10.11,0,0,1,3.07.67h8.16a10.86,10.86,0,0,1,3-.48c16.41-2.49,28.31-11.05,35.11-26.31C473.06,337.87,474.08,328.29,473.22,318.48Zm-32.29,18c-3.77,6.85-9.8,10.28-17.43,11.07a26.86,26.86,0,0,1-13.61-1.81,20.07,20.07,0,0,1-11.45-12.18,28.53,28.53,0,0,1,.68-21.7,20,20,0,0,1,14-11.64,27.28,27.28,0,0,1,16.71.75c7.72,2.91,11.9,8.76,13.53,16.65a26.37,26.37,0,0,1,.53,5.32C443.94,328.09,443.13,332.47,440.93,336.47Z" transform="translate(-242.69 -95)"/><path class="cls-1" d="M352.56,310.31c-3-10.16-9.12-17.94-18.73-22.67a38.69,38.69,0,0,0-24.64-3.06,34.39,34.39,0,0,0-18.85,10,39,39,0,0,0-10.25,20.06,34.94,34.94,0,0,1-.85,4.87v8.64c.25.07.22.29.24.48a41.74,41.74,0,0,0,4.58,15.63,35,35,0,0,0,16.71,16,38.06,38.06,0,0,0,18.91,3.27c12.53-.91,22.39-6.47,28.87-17.29C355.29,334.94,356.21,322.77,352.56,310.31Zm-18.4,19.55A15.06,15.06,0,0,1,324.77,340a21.13,21.13,0,0,1-15.9-.08c-6.55-2.64-9.54-7.87-10.07-14.7-.05-.56-.06-1.12-.08-1.68a20.06,20.06,0,0,1,1.88-8.44,15.24,15.24,0,0,1,9.7-8.12,21.7,21.7,0,0,1,14.21.36,15.08,15.08,0,0,1,9.48,9.78A20.6,20.6,0,0,1,334.16,329.86Z" transform="translate(-242.69 -95)"/><path class="cls-1" d="M562.45,329.2a23.8,23.8,0,0,0-10.82-18.65c2.94,0,5.52-.05,8.1,0,1,0,1.17-.31,1.17-1.22q-.06-9,0-18c0-1-.28-1.23-1.25-1.23-12,0-24,0-36,0a69.37,69.37,0,0,0-15.34,1.51c-10.52,2.39-17.41,8.56-19.71,19.28a53,53,0,0,0,1.94,29.92,41.62,41.62,0,0,0,7.36,12.65c.63.74,1.07,1.06,1.92.21,3.53-3.53,7.13-7,10.72-10.47.55-.53.22-.79-.15-1.13a25.52,25.52,0,0,1-4.31-5.13c-3.4-5.56-4.8-11.49-2.65-17.83a12.11,12.11,0,0,1,10.05-8.52c1.8-.31,1.81-.29,1.8,1.49a150.89,150.89,0,0,0,.73,16.74,55.5,55.5,0,0,0,4.6,17.88c6.42,13.58,21.18,14.5,29.88,10,6.55-3.35,9.83-9.19,11.47-16.13a19.91,19.91,0,0,1,.72-3.43V329.8C562.36,329.69,562.47,329.42,562.45,329.2ZM547,331.25c-.67,2.8-2.13,5.19-5.06,6.21a7.72,7.72,0,0,1-9.05-3.58c-2-3.23-2.72-6.88-3.11-10.58-.26-2.41-.31-4.85-.45-7.27h.07c0-1.56,0-3.11,0-4.67,0-.51.08-.83.71-.81,1.92.06,3.85-.06,5.74.14a11.25,11.25,0,0,1,8.6,5.44A19.06,19.06,0,0,1,547,331.25Z" transform="translate(-242.69 -95)"/><ellipse class="cls-2" cx="269.5" cy="265.7" rx="68.92" ry="57.73"/><ellipse class="cls-2" cx="75.34" cy="265.7" rx="68.92" ry="57.73"/><path d="M306.11,168.64a37.67,37.67,0,0,1,14.7-1.43c5.21.61,9.9,2.46,13.43,6.48a19,19,0,0,1,5,15,22.35,22.35,0,0,1-3.37,9.06,80.16,80.16,0,0,1-6.57,8.88,13.76,13.76,0,0,0-3.34,8.72,12,12,0,0,1-.3,2.14,5.24,5.24,0,0,1-2.55,3.66,7.77,7.77,0,0,1-6.29,1.15,7.18,7.18,0,0,1-4.94-5.35,13,13,0,0,1,1.07-9.26,53.92,53.92,0,0,1,5.5-8.5,31,31,0,0,0,4.09-7,9.55,9.55,0,0,0-3.17-10.95,8.61,8.61,0,0,0-5.74-1.49,15.34,15.34,0,0,0-7,2.13,9.16,9.16,0,0,0-4.18,5.66c-.61,2.11-.74,4.32-1.28,6.44a7.21,7.21,0,0,1-6.83,5.67,6.36,6.36,0,0,1-5.44-1.88,6.52,6.52,0,0,1-1.6-3,15.89,15.89,0,0,1,.72-10.18c2.46-6.18,6.89-10.57,12.65-13.73A30,30,0,0,1,306.11,168.64Z" transform="translate(-242.69 -95)"/><path d="M323,228.87a8.9,8.9,0,1,1-6.15,10.9A8.92,8.92,0,0,1,323,228.87Z" transform="translate(-242.69 -95)"/><path d="M425.25,95A48.94,48.94,0,0,1,444,99c6.2,2.81,11.28,6.94,14.06,13.31,2.94,6.73,3.25,13.63.24,20.46a28.83,28.83,0,0,1-7.73,9.88,105.2,105.2,0,0,1-11.62,8.4,17.88,17.88,0,0,0-7.56,9.47,15.1,15.1,0,0,1-1.22,2.53,6.83,6.83,0,0,1-4.59,3.53c-2.87.64-5.71.66-8.23-1.06-3-2-4.12-5-4-8.57.15-4.35,2.09-7.9,5-11s6.64-5.72,10.15-8.34a40.82,40.82,0,0,0,7.79-7,12.37,12.37,0,0,0,.39-14.79,11.2,11.2,0,0,0-6.51-4.11,19.83,19.83,0,0,0-9.47-.12,11.92,11.92,0,0,0-7.41,5.36c-1.59,2.38-2.62,5-4.13,7.47a9.37,9.37,0,0,1-10.67,4.33,8.36,8.36,0,0,1-6-4.48,8.59,8.59,0,0,1-.81-4.31,20.73,20.73,0,0,1,4.9-12.31c5.48-6.68,12.69-10.37,21-12A38.6,38.6,0,0,1,425.25,95Z" transform="translate(-242.69 -95)"/><path d="M422.41,176.15a11.55,11.55,0,1,1-11.9,11.06A11.57,11.57,0,0,1,422.41,176.15Z" transform="translate(-242.69 -95)"/><path d="M546.38,178.53a31.94,31.94,0,0,1,10.07,7.39c2.95,3.33,4.86,7.14,4.82,11.67A16,16,0,0,1,556,209.83a18.79,18.79,0,0,1-7.23,3.81,66.76,66.76,0,0,1-9.16,1.89,11.68,11.68,0,0,0-7,3.62,9.83,9.83,0,0,1-1.4,1.18,4.47,4.47,0,0,1-3.68.88,6.61,6.61,0,0,1-4.61-2.83,6.07,6.07,0,0,1-.1-6.16,10.94,10.94,0,0,1,5.9-5.24,45.6,45.6,0,0,1,8.27-2.26,26.09,26.09,0,0,0,6.5-2.08,8.07,8.07,0,0,0,4.18-8.7,7.32,7.32,0,0,0-2.78-4.18,13,13,0,0,0-5.6-2.6,7.78,7.78,0,0,0-5.84,1.21c-1.58,1-2.9,2.31-4.44,3.34a6.12,6.12,0,0,1-7.51-.27,5.42,5.42,0,0,1-2.37-4.26,5.58,5.58,0,0,1,.67-2.78,13.52,13.52,0,0,1,6.2-6,22.63,22.63,0,0,1,15.73-1.53A25,25,0,0,1,546.38,178.53Z" transform="translate(-242.69 -95)"/><path d="M523,226a7.54,7.54,0,1,1-10,3.41A7.56,7.56,0,0,1,523,226Z" transform="translate(-242.69 -95)"/><path d="M484.42,188.81a20.64,20.64,0,0,1,7.39,3.43,11.09,11.09,0,0,1,4.58,6.83,10.42,10.42,0,0,1-1.82,8.5,12.06,12.06,0,0,1-4.13,3.37,42.45,42.45,0,0,1-5.6,2.39,7.63,7.63,0,0,0-4,3.22,6.72,6.72,0,0,1-.75.94,2.9,2.9,0,0,1-2.23,1,4.29,4.29,0,0,1-3.31-1.21,4,4,0,0,1-.86-3.93,7.18,7.18,0,0,1,3.1-4.11,29.74,29.74,0,0,1,5-2.5,17.44,17.44,0,0,0,3.89-2.17,5.28,5.28,0,0,0,1.55-6.1,4.8,4.8,0,0,0-2.31-2.31,8.61,8.61,0,0,0-3.92-.94,5.05,5.05,0,0,0-3.57,1.53c-.88.83-1.56,1.85-2.41,2.71a4,4,0,0,1-4.83.79,3.54,3.54,0,0,1-2.07-2.42,3.66,3.66,0,0,1,.07-1.86,8.79,8.79,0,0,1,3.19-4.64,14.73,14.73,0,0,1,9.85-3A16,16,0,0,1,484.42,188.81Z" transform="translate(-242.69 -95)"/><path d="M475.63,222.18a4.91,4.91,0,1,1-6,3.47A4.92,4.92,0,0,1,475.63,222.18Z" transform="translate(-242.69 -95)"/><path d="M375.92,160.54a23,23,0,0,1,9.1.09,12.43,12.43,0,0,1,7.81,4.85,11.69,11.69,0,0,1,2.06,9.49,13.66,13.66,0,0,1-2.66,5.33,47.53,47.53,0,0,1-4.6,5,8.47,8.47,0,0,0-2.62,5.12,7.26,7.26,0,0,1-.32,1.3,3.27,3.27,0,0,1-1.8,2.08,4.79,4.79,0,0,1-3.93.29,4.43,4.43,0,0,1-2.68-3.6,8,8,0,0,1,1.26-5.61,33.21,33.21,0,0,1,3.93-4.85,19.32,19.32,0,0,0,2.95-4,5.88,5.88,0,0,0-1.22-6.92,5.33,5.33,0,0,0-3.43-1.28,9.32,9.32,0,0,0-4.41.84,5.67,5.67,0,0,0-2.94,3.2c-.51,1.26-.73,2.6-1.21,3.87a4.45,4.45,0,0,1-4.55,3,4,4,0,0,1-3.21-1.51,4.05,4.05,0,0,1-.79-1.93,9.86,9.86,0,0,1,1.11-6.19,16.45,16.45,0,0,1,8.65-7.59A18.5,18.5,0,0,1,375.92,160.54Z" transform="translate(-242.69 -95)"/><path d="M382.33,198.56a5.49,5.49,0,1,1-4.48,6.28A5.5,5.5,0,0,1,382.33,198.56Z" transform="translate(-242.69 -95)"/><path d="M345.28,117.21a14.36,14.36,0,0,1,5.51-.88,7.68,7.68,0,0,1,5.22,2.13,7.18,7.18,0,0,1,2.22,5.53,8.49,8.49,0,0,1-1.06,3.5,29.92,29.92,0,0,1-2.27,3.5,5.25,5.25,0,0,0-1.06,3.37,3.69,3.69,0,0,1-.06.81,2,2,0,0,1-.88,1.44,2.91,2.91,0,0,1-2.34.58,2.72,2.72,0,0,1-2-1.9,4.86,4.86,0,0,1,.19-3.52,20.9,20.9,0,0,1,1.87-3.33,11.8,11.8,0,0,0,1.38-2.72,3.61,3.61,0,0,0-1.45-4.06,3.32,3.32,0,0,0-2.2-.43,5.88,5.88,0,0,0-2.58,1,3.45,3.45,0,0,0-1.45,2.23c-.18.81-.18,1.65-.33,2.46a2.73,2.73,0,0,1-2.44,2.3,2.37,2.37,0,0,1-2.77-1.67,6,6,0,0,1,0-3.86,10.14,10.14,0,0,1,4.45-5.47A11.33,11.33,0,0,1,345.28,117.21Z" transform="translate(-242.69 -95)"/><path d="M353.05,139.54a3.36,3.36,0,1,1-2.06,4.25A3.36,3.36,0,0,1,353.05,139.54Z" transform="translate(-242.69 -95)"/><path d="M513.81,130.62a14.1,14.1,0,0,1,4.83,2.8,7.64,7.64,0,0,1,2.69,5,7.18,7.18,0,0,1-1.77,5.69,8.49,8.49,0,0,1-3,2,29.1,29.1,0,0,1-4,1.27,5.27,5.27,0,0,0-2.95,1.94,4.53,4.53,0,0,1-.56.6,2,2,0,0,1-1.59.56,2.9,2.9,0,0,1-2.18-1,2.71,2.71,0,0,1-.34-2.73,4.92,4.92,0,0,1,2.37-2.61,20.53,20.53,0,0,1,3.56-1.39,12.21,12.21,0,0,0,2.79-1.23,3.63,3.63,0,0,0,1.44-4.07,3.27,3.27,0,0,0-1.43-1.72,5.93,5.93,0,0,0-2.61-.89,3.5,3.5,0,0,0-2.54.82c-.65.52-1.18,1.16-1.81,1.7a2.74,2.74,0,0,1-3.35.23,2.4,2.4,0,0,1-1.25-1.78,2.46,2.46,0,0,1,.16-1.26,6.1,6.1,0,0,1,2.47-3,10.1,10.1,0,0,1,6.91-1.42A10.86,10.86,0,0,1,513.81,130.62Z" transform="translate(-242.69 -95)"/><path d="M505.71,152.83a3.36,3.36,0,1,1-4.29,2A3.36,3.36,0,0,1,505.71,152.83Z" transform="translate(-242.69 -95)"/></g><g id="Laag_2" data-name="Laag 2"><ellipse class="cls-3" cx="391.26" cy="384.76" rx="13.31" ry="6.37" transform="translate(-342.07 535.52) rotate(-71.13)"/><ellipse class="cls-3" cx="438.96" cy="384.76" rx="6.37" ry="13.31" transform="translate(-343.55 67.68) rotate(-18.87)"/><path d="M584.82,344l0,.06L573,287l-9.47,2.42,1.65,5.65L573,323.5l0,0c-13.71-15.66-35.84-25.84-60.82-25.84-36,0-66.15,21.16-73.57,49.43-16.17-9.63-30.87-9.41-46.91.39-7.25-28.47-37.48-49.82-73.68-49.82-25,0-47.19,10.21-60.89,25.91l.07-.11L265,295.06l1.65-5.65L257.21,287,245.34,344l.08-.15a53.43,53.43,0,0,0-2.73,16.81c0,34.79,33.73,63,75.34,63s75.34-28.21,75.34-63c0-1.2-.05-2.39-.13-3.58,15.93-10.74,28.19-10.75,43.78-.48-.1,1.34-.17,2.69-.17,4.06,0,34.79,33.73,63,75.34,63s75.34-28.21,75.34-63A53.43,53.43,0,0,0,584.82,344ZM318,415.74c-36.35,0-65.82-24.64-65.82-55s29.47-55,65.82-55,65.82,24.64,65.82,55S354.38,415.74,318,415.74Zm194.16,0c-36.36,0-65.83-24.64-65.83-55s29.47-55,65.83-55S578,330.3,578,360.7,548.54,415.74,512.19,415.74Z" transform="translate(-242.69 -95)"/></g></svg>